PathFileType	4	(X/Y/Z)	../Python\running\Running15\task.trc
DataRate	CameraRate	NumFrames	NumMarkers	Units	OrigDataRate	OrigDataStartFrame	OrigNumFrames
200.000000	200.000000	6	30	mm	200.000000	80	215
Frame#	Time	C7			RBAK			CLAV			STRN			RASI			LASI			RTH1			RTH2			RTH3			RTB2			RHEE			RD5M			RTOE			LTH3			LTB2			LTB3			LHEE			LTOE			LD5M			RTB3			RTB1			T10			PE01			LPSI			PE03			PE02			LTH2			RPSI			LTH1			LTB1			
		X1	Y1	Z1	X2	Y2	Z2	X3	Y3	Z3	X4	Y4	Z4	X5	Y5	Z5	X6	Y6	Z6	X7	Y7	Z7	X8	Y8	Z8	X9	Y9	Z9	X10	Y10	Z10	X11	Y11	Z11	X12	Y12	Z12	X13	Y13	Z13	X14	Y14	Z14	X15	Y15	Z15	X16	Y16	Z16	X17	Y17	Z17	X18	Y18	Z18	X19	Y19	Z19	X20	Y20	Z20	X21	Y21	Z21	X22	Y22	Z22	X23	Y23	Z23	X24	Y24	Z24	X25	Y25	Z25	X26	Y26	Z26	X27	Y27	Z27	X28	Y28	Z28	X29	Y29	Z29	X30	Y30	Z30	

81	0.4	-691.6964111328127	1322.997436523438	145.3043212890626	-752.932067871094	1250.991088867188	240.7891235351564	-574.2960205078127	1220.395141601563	173.6371307373047	-543.8568115234377	1025.00537109375	181.634262084961	-601.0650024414065	835.207153320313	281.9077148437501	-626.9453125000002	825.522338867188	56.94983673095706	-541.7205200195315	583.9407348632815	313.5097045898439	-482.9143066406252	536.829284667969	286.967498779297	-493.6117248535159	595.8625488281252	303.854949951172	-523.5400390625002	307.1526184082032	308.415985107422	-656.698181152344	95.25498199462893	261.480926513672	-508.543884277344	69.21977233886722	324.5924072265626	-476.8773498535159	64.85585784912112	272.7120971679689	-718.3889160156252	543.6203613281252	46.89026641845705	-957.6452026367192	229.3402709960939	110.4245376586915	-908.4726562500005	232.1041107177736	112.2582092285157	-1084.200439453125	104.7432861328126	178.1243286132813	-917.0632324218755	26.12808799743654	190.9002380371094	-958.834838867188	15.77051639556885	136.517318725586	-508.497741699219	262.1569213867189	290.7615356445314	-472.8898010253909	333.1652221679689	286.6949157714845	-757.4172363281252	1035.753662109375	175.522689819336	-784.8718872070317	935.5797729492192	198.9082489013673	-804.137329101563	902.8991699218755	159.4136962890626	-818.7300415039067	881.1121215820317	178.576644897461	-813.6261596679692	883.4619140625005	228.9185943603517	-794.9889526367192	528.3470458984377	63.18185806274417	-794.5858764648442	903.2128295898442	244.4553527832032	-758.7749633789065	574.311218261719	43.21280670166017	-910.1101074218755	289.7869873046876	90.23513793945315	
82	0.405	-676.639831542969	1326.541625976563	145.6696929931641	-738.7039794921877	1254.0537109375	239.0969848632814	-559.1184692382815	1224.807006835938	175.1272430419922	-527.6619262695315	1029.702514648438	182.1965332031251	-584.1866455078127	839.9385375976567	281.0340270996095	-610.104187011719	828.076049804688	56.36659240722659	-524.5562744140627	588.6614379882815	311.8048095703126	-465.956481933594	541.474792480469	284.9459838867189	-476.5131530761721	600.472106933594	301.9129943847657	-497.928405761719	308.3262329101564	307.0866699218751	-624.1314086914065	93.10013580322268	260.6173706054689	-474.9199523925784	68.03021240234378	321.8050231933595	-444.1936645507815	64.21826934814456	269.2304077148439	-707.9809570312502	547.1174316406252	48.08718109130862	-953.1621704101567	235.9724578857423	110.8538970947266	-903.920043945313	238.6425781250001	111.8825988769532	-1077.824096679688	112.5932693481446	177.9284820556641	-917.2216796875005	25.88045501708986	190.8984832763672	-958.431762695313	16.47108840942384	136.7901458740235	-481.4719543457034	264.2284545898439	288.7524414062501	-448.7512817382815	336.4871826171876	284.3790588378907	-741.0140380859377	1038.905639648438	173.0492858886719	-767.9295043945315	939.034301757813	196.7429656982423	-787.2324218750005	906.128051757813	157.7332305908204	-801.9921264648442	884.3317260742192	177.4110107421876	-796.767211914063	887.4924926757817	227.7130432128907	-785.2593383789067	533.6541137695315	63.41034698486331	-777.8606567382817	907.092895507813	242.8615875244142	-747.6373291015627	578.8206176757815	43.78345489501955	-905.8711547851567	296.6800537109376	90.8976745605469	
83	0.41	-661.4892578125002	1330.10107421875	146.0507965087891	-724.3591918945315	1257.120727539063	237.4360351562501	-543.9053955078127	1229.205810546875	176.583236694336	-511.4288330078127	1034.396362304688	182.7544250488282	-567.2642211914065	844.6445922851567	280.0692443847657	-593.1926879882815	830.6757202148442	55.72923660278323	-507.5203552246096	593.243103027344	310.1693115234376	-449.262878417969	545.7929687500002	283.0784912109376	-459.5110778808596	604.798767089844	299.9940795898439	-472.6854248046877	309.4985656738282	305.695037841797	-591.6838989257815	91.31216430664065	259.1466369628907	-441.691589355469	67.00480651855472	318.9087524414064	-411.7579345703127	63.72495269775393	265.7813720703126	-697.0192871093752	550.6767578125002	49.36705017089847	-947.9683227539067	242.7997894287111	111.2658920288087	-898.6788940429692	245.4340057373048	111.4346160888672	-1070.401000976563	120.6909637451172	177.7961578369141	-917.2971191406255	25.65255355834962	190.9385528564454	-957.7438354492192	17.43705368041993	137.1099548339844	-454.8124084472659	266.371063232422	286.6892700195314	-425.0465393066409	339.7533264160157	282.1228027343751	-724.5593261718752	1042.111450195313	170.6047668457032	-750.8613891601565	942.544067382813	194.6353759765626	-770.2328491210942	909.481323242188	156.0916900634766	-785.1688842773442	887.660034179688	176.2879943847657	-779.781860351563	891.583374023438	226.5362091064454	-775.0053100585942	539.0696411132815	63.55306625366214	-761.004089355469	910.999633789063	241.317108154297	-735.9143676757815	583.4061279296877	44.30792617797853	-901.012817382813	303.8598937988282	91.58882141113284	
84	0.415	-646.2437133789065	1333.649780273438	146.4486846923829	-709.895935058594	1260.166748046875	235.814666748047	-528.656921386719	1233.561889648438	178.0016174316407	-495.1650695800784	1039.062622070313	183.3057403564454	-550.315124511719	849.286010742188	279.0202636718751	-576.2290649414065	833.293090820313	55.04326248168948	-490.6083679199221	597.666687011719	308.617645263672	-432.8148498535159	549.7796020507815	281.3824462890626	-442.6043090820315	608.8403320312502	298.1072082519532	-447.8815612792971	310.6611938476564	304.2562561035157	-559.4038085937502	89.87452697753909	257.0736389160157	-408.8844299316409	66.16902923583987	315.9170227050782	-379.5711975097657	63.4365158081055	262.3814697265626	-685.5924072265627	554.2874145507815	50.63093948364261	-942.025512695313	249.7353057861329	111.6592483520508	-892.7089233398442	252.3874816894532	110.9300842285157	-1061.946655273438	128.9541473388672	177.7369537353516	-917.1901855468755	25.49805641174318	191.0296478271485	-956.6853027343755	18.71754837036134	137.4938659667969	-428.5777587890627	268.569793701172	284.6236877441407	-401.8288879394534	342.9502258300782	279.9849243164064	-708.0664672851565	1045.351440429688	168.2071228027344	-733.679626464844	946.098999023438	192.5976715087892	-753.1519165039065	912.9479370117192	154.4993438720704	-768.2697753906255	891.0861816406255	175.2104949951172	-762.686218261719	895.721801757813	225.3931121826173	-764.275329589844	544.5706176757815	63.64397430419925	-744.0318603515627	914.921508789063	239.8291320800782	-723.6972656250002	588.0377197265627	44.76720046997072	-895.4802246093755	311.2265014648439	92.30647277832034	
85	0.42	-630.9038085937502	1337.162109375	146.8639373779297	-695.3140869140627	1263.167114257813	234.2403717041017	-513.3730468750002	1237.846923828125	179.3793640136719	-478.8772277832034	1043.679321289063	183.8475799560547	-533.356140136719	853.8255004882817	277.8969726562501	-559.2297363281252	835.9016113281255	54.31692123413089	-473.8209533691409	601.913269042969	307.163787841797	-416.5969543457034	553.4344482421877	279.8735656738282	-425.7973327636721	612.596130371094	296.2654724121095	-423.5848388671877	311.8014526367189	302.7849121093751	-527.3450317382815	88.77547454833987	254.4240570068361	-376.520965576172	65.54466247558597	312.8306884765626	-347.6445312500001	63.41067886352542	259.025848388672	-673.7901611328127	557.9576416015627	51.7708549499512	-935.3106079101567	256.6937561035157	112.031364440918	-885.9843139648442	259.409149169922	110.3900680541993	-1052.521118164063	137.3002471923829	177.7496185302735	-916.7729492187505	25.49189949035646	191.1770935058594	-955.1542968750005	20.36281394958497	137.9527893066407	-402.8258056640627	270.806365966797	282.6051635742189	-379.1475219726564	346.0606689453126	278.0195312500001	-691.5491333007815	1048.60498046875	165.8729553222657	-716.3981933593752	949.6893920898442	190.6411132812501	-736.0037231445315	916.5153198242192	152.9646453857422	-751.3045654296877	894.5981445312505	174.1792449951172	-745.4986572265627	899.894165039063	224.2869415283204	-753.1091918945315	550.142028808594	63.72034454345706	-726.9617919921877	918.8489379882817	238.4037475585939	-711.0845336914065	592.6980590820315	45.14336395263673	-889.2265014648442	318.6748352050782	93.04399871826175	
86	0.425	-615.4714965820315	1340.613159179688	147.2966003417969	-680.6152954101565	1266.097290039063	232.7196197509767	-498.0536193847659	1242.0341796875	180.7138824462891	-462.5708618164065	1048.227294921875	184.3764953613282	-516.4028320312502	858.2288208007817	276.7113037109376	-542.2097778320315	838.4773559570317	53.56045913696292	-457.1638183593752	605.9638671875002	305.8206176757814	-400.5976867675784	556.7595825195315	278.5653076171876	-409.0998229980471	616.065856933594	294.4862365722657	-399.8575439453127	312.9029235839845	301.2937011718751	-495.5681152343752	88.0080261230469	251.2441558837892	-344.6234436035157	65.14797210693362	309.6400451660157	-316.0023498535157	63.69752120971683	255.6910705566407	-661.6965332031252	561.7012329101565	52.68435287475589	-927.8168334960942	263.5959777832032	112.3789443969727	-878.494506835938	266.4061279296876	109.8400268554688	-1042.229736328125	145.6511230468751	177.8235931396485	-915.8942871093755	25.72838783264162	191.3813629150391	-953.0376586914067	22.42486763000489	138.4884185791016	-377.6116027832032	273.0592346191407	280.6775512695314	-357.0454406738282	349.064178466797	276.2724609375001	-675.0205078125002	1051.850952148438	163.6176757812501	-699.0325927734377	953.305297851563	188.776351928711	-718.8026123046877	920.1687011718755	151.4943389892579	-734.2837524414065	898.1823730468755	173.1931152343751	-728.2391357421877	904.0856323242192	223.2193450927736	-741.5393066406252	555.770202636719	63.81888198852542	-709.8135375976565	922.7732543945317	237.0460205078126	-698.1721801757815	597.3760986328127	45.42197036743165	-882.2138061523442	326.098846435547	93.78977966308597	
